<svg width="43" height="43" viewBox="0 0 43 43" fill="none" xmlns="http://www.w3.org/2000/svg">
<path d="M42.7046 30.2325C42.7046 37.7365 38.1476 42.2101 30.5036 42.2101H28.0046C26.8496 42.2101 25.9046 41.2824 25.9046 40.1485V28.2534C25.9046 27.6968 26.3666 27.2227 26.9336 27.2227L30.6296 27.1608C30.9236 27.1402 31.1756 26.9341 31.2386 26.6454L31.9736 22.7079C32.0366 22.3368 31.7426 21.9864 31.3436 21.9864L26.8706 22.0482C26.2826 22.0482 25.8206 21.5947 25.7996 21.0381L25.7156 15.9873C25.7156 15.6574 25.9886 15.3688 26.3456 15.3688L31.3856 15.2863C31.7426 15.2863 32.0156 15.0184 32.0156 14.6679L31.9316 9.72017C31.9316 9.3697 31.6586 9.10172 31.3016 9.10172L25.6316 9.18421C22.1456 9.24605 19.3736 12.0497 19.4366 15.4719L19.5416 21.1411C19.5626 21.7184 19.1006 22.1719 18.5126 22.1925L15.9926 22.2337C15.6356 22.2337 15.3626 22.5017 15.3626 22.8522L15.4256 26.7691C15.4256 27.1196 15.6986 27.3876 16.0556 27.3876L18.5756 27.3464C19.1636 27.3464 19.6256 27.7999 19.6466 28.3565L19.8356 40.1073C19.8566 41.2618 18.9116 42.2101 17.7356 42.2101H12.9056C5.26159 42.2101 0.70459 37.7365 0.70459 30.2119V12.9568C0.70459 5.45279 5.26159 0.979248 12.9056 0.979248H30.5036C38.1476 0.979248 42.7046 5.45279 42.7046 12.9568V30.2325Z" fill="black"/>
</svg>
