<svg width="41" height="41" viewBox="0 0 41 41" fill="none" xmlns="http://www.w3.org/2000/svg">
<path d="M20.975 10.527C15.2996 10.527 10.7218 15.022 10.7218 20.5947C10.7218 26.1674 15.2996 30.6624 20.975 30.6624C26.6504 30.6624 31.2282 26.1674 31.2282 20.5947C31.2282 15.022 26.6504 10.527 20.975 10.527ZM20.975 27.14C17.3074 27.14 14.3091 24.2047 14.3091 20.5947C14.3091 16.9847 17.2985 14.0494 20.975 14.0494C24.6515 14.0494 27.6409 16.9847 27.6409 20.5947C27.6409 24.2047 24.6426 27.14 20.975 27.14ZM34.0391 10.1152C34.0391 11.4207 32.9683 12.4634 31.6476 12.4634C30.318 12.4634 29.2561 11.412 29.2561 10.1152C29.2561 8.81838 30.3269 7.76692 31.6476 7.76692C32.9683 7.76692 34.0391 8.81838 34.0391 10.1152ZM40.83 12.4985C40.6783 9.35287 39.9465 6.56651 37.5996 4.27083C35.2617 1.97515 32.424 1.25666 29.2204 1.09894C25.9187 0.914936 16.0224 0.914936 12.7207 1.09894C9.52601 1.2479 6.68831 1.96639 4.34141 4.26207C1.9945 6.55775 1.27169 9.3441 1.11107 12.4897C0.923671 15.7317 0.923671 25.4489 1.11107 28.6909C1.26277 31.8365 1.9945 34.6228 4.34141 36.9185C6.68831 39.2142 9.51709 39.9327 12.7207 40.0904C16.0224 40.2744 25.9187 40.2744 29.2204 40.0904C32.424 39.9414 35.2617 39.223 37.5996 36.9185C39.9376 34.6228 40.6693 31.8365 40.83 28.6909C41.0174 25.4489 41.0174 15.7405 40.83 12.4985ZM36.5645 32.1694C35.8685 33.8868 34.521 35.2099 32.763 35.9021C30.1306 36.9273 23.8841 36.6907 20.975 36.6907C18.0659 36.6907 11.8105 36.9185 9.18692 35.9021C7.43789 35.2187 6.09043 33.8956 5.38547 32.1694C4.34141 29.5846 4.58234 23.4511 4.58234 20.5947C4.58234 17.7382 4.35033 11.596 5.38547 9.0199C6.08151 7.30253 7.42897 5.97945 9.18692 5.28724C11.8194 4.26207 18.0659 4.49865 20.975 4.49865C23.8841 4.49865 30.1395 4.27083 32.763 5.28724C34.5121 5.97068 35.8595 7.29376 36.5645 9.0199C37.6086 11.6047 37.3676 17.7382 37.3676 20.5947C37.3676 23.4511 37.6086 29.5934 36.5645 32.1694Z" fill="black"/>
</svg>
